HIERARCHY
ROOT Hips
{
  OFFSET 37.8982 90.5175 344.982
  CHANNELS 6 Xposition Yposition Zposition Zrotation Xrotation Yrotation
  JOINT RightUpLeg
  {
    OFFSET -8.9458 -8.66707 0.101652
    CHANNELS 3 Zrotation Xrotation Yrotation
    JOINT RightLeg
    {
      OFFSET 0 -44.4227 1.3727
      CHANNELS 3 Zrotation Xrotation Yrotation
      JOINT RightFoot
      {
        OFFSET 0.253549 -42.0924 -1.46059
        CHANNELS 3 Zrotation Xrotation Yrotation
        JOINT RightToes
        {
          OFFSET 0.04 -4.41509 8.4991
          CHANNELS 3 Zrotation Xrotation Yrotation
          End Site
          {
            OFFSET -0.08 -0.137448 9.77979
          }
        }
      }
    }
  }
  JOINT Spine
  {
    OFFSET 0 11.8905 0
    CHANNELS 3 Zrotation Xrotation Yrotation
    JOINT Spine1
    {
      OFFSET 0 25.6574 0.127663
      CHANNELS 3 Zrotation Xrotation Yrotation
      JOINT HEad
      {
        OFFSET 0 8.73416 0.011341
        CHANNELS 3 Zrotation Xrotation Yrotation
        End Site
        {
          OFFSET -0.29 12.7742 2.51395
        }
      }
      JOINT LeftShoulder1
      {
        OFFSET 8.99 -0.362252 -0.22
        CHANNELS 3 Zrotation Xrotation Yrotation
        JOINT LeftArm
        {
          OFFSET 10.2827 -0.00338 0.322123
          CHANNELS 3 Zrotation Xrotation Yrotation
          JOINT LeftForeArm
          {
            OFFSET 32.7669 0.099144 -1.42434
            CHANNELS 3 Zrotation Xrotation Yrotation
            JOINT LeftHand
            {
              OFFSET 27.5643 0.085362 1.02216
              CHANNELS 3 Zrotation Xrotation Yrotation
              End Site
              {
                OFFSET 16.7443 -0.6 1.50291
              }
            }
          }
        }
      }
      JOINT RightShoulder
      {
        OFFSET -8.99 -0.362252 -0.22
        CHANNELS 3 Zrotation Xrotation Yrotation
        JOINT RightArm
        {
          OFFSET -10.2827 -0.00338 0.322123
          CHANNELS 3 Zrotation Xrotation Yrotation
          JOINT RightForeArm
          {
            OFFSET -32.8971 0.099144 -1.42434
            CHANNELS 3 Zrotation Xrotation Yrotation
            JOINT RightHand
            {
              OFFSET -27.4921 0.085362 1.02216
              CHANNELS 3 Zrotation Xrotation Yrotation
              End Site
              {
                OFFSET -16.6312 -0.6 1.50291
              }
            }
          }
        }
      }
    }
  }
  JOINT LeftUpLeg
  {
    OFFSET 8.9458 -8.66707 0.101652
    CHANNELS 3 Zrotation Xrotation Yrotation
    JOINT LeftLeg
    {
      OFFSET 0 -44.4227 1.3727
      CHANNELS 3 Zrotation Xrotation Yrotation
      JOINT LeftFoot
      {
        OFFSET -0.253549 -42.0924 -1.46059
        CHANNELS 3 Zrotation Xrotation Yrotation
        JOINT LeftToes
        {
          OFFSET -0.04 -4.41509 8.4991
          CHANNELS 3 Zrotation Xrotation Yrotation
          End Site
          {
            OFFSET 0.08 -0.047448 9.77979
          }
        }
      }
    }
  }
}
MOTION
Frames:	8
Frame Time:	0.0166667
44.5508 90.1848 325.432 -15.931 -3.70623 -75.8146 -30.1486 -3.86393 21.6205 43.7253 37.6093 -51.4027 -22.471 0.480669 -0.88069 0.0462048 0.000533403 0.662642 -0.85876 24.8853 -1.66121 -0.0179296 0.02701 0.0169704 1.26385 3.84532 14.0071 -3.97569e-016 1.98785e-016 -0 -121.527 -61.0804 -99.0344 -53.5232 54.9837 -55.5573 20.9834 16.3676 -12.3468 15.4334 8.978 -0.518625 109.038 -6.69772 75.2534 26.5226 56.4321 90.9904 24.742 20.9863 1.37263 26.8673 -9.16779 -7.46877 -53.7175 14.2854 82.7392 4.56089 -11.6121 -1.61031 -2.02642e-009 1.56019e-007 -4.87106e-009 
44.3793 91.034 326.024 -15.7224 -3.93318 -76.0398 -30.2316 -2.42525 21.4056 40.6964 36.2383 -48.2952 -20.9623 0.0765635 -0.889338 0.0462048 0.000533403 0.662642 -2.53881 25.8403 -0.616265 -0.0165597 0.03217 0.00943039 0.886153 3.30636 13.1923 -7.95139e-016 2.98177e-015 -3.18055e-015 -118.533 -62.4846 -96.7432 -51.326 48.911 -56.9656 19.9057 17.5716 -5.13169 10.0049 9.90807 0.896898 112.755 -5.72615 77.6448 22.9522 56.6615 93.0599 31.1153 22.3086 2.69911 25.403 -10.5002 -9.7942 -52.9598 15.0323 84.5919 7.43616 -11.4651 -1.01698 -2.02642e-009 1.56019e-007 -4.87106e-009 
44.1804 91.7573 326.633 -15.5137 -4.1511 -76.3526 -30.4999 -0.635979 21.0887 37.4883 34.4675 -44.8105 -19.3596 -0.420316 -0.885009 0.0462048 0.000533403 0.662642 -4.39208 27.0908 0.57289 -0.01001 0.03277 -0.00216977 0.209566 2.56815 12.1511 -7.95139e-016 -2.18663e-015 -0 -113.712 -64.7394 -92.7662 -50.0186 42.2096 -59.1098 15.981 18.7049 0.913058 2.81235 11.1652 1.68601 117.038 -3.59801 80.6034 18.1933 56.5249 95.6852 37.701 24.4322 2.95127 23.7027 -12.1699 -12.3199 -52.2636 16.3057 86.2549 11.9329 -11.0994 -0.209141 -2.02642e-009 1.56019e-007 -4.87105e-009 
43.9195 92.4779 327.266 -14.8298 -3.87302 -78.769 -30.9445 0.208791 21.5203 34.3138 32.0583 -40.384 -18.0355 -1.03298 -0.896033 0.0462048 0.000533403 0.662642 -7.13297 28.5804 3.57642 -0.0120509 0.10347 -0.0441997 -0.365688 0.655863 11.6852 -1.59028e-015 -1.19271e-015 3.18055e-015 -102.137 -68.9595 -83.5564 -50.1842 31.9126 -61.0305 5.61684 17.3366 9.27904 -6.2083 14.4737 -3.36513 119.852 3.78509 84.0002 11.7224 54.4938 98.9467 43.788 26.7745 -6.22043 22.7703 -14.218 -13.6056 -52.2175 18.9594 86.6344 15.5298 -10.485 0.300053 -2.02642e-009 1.56019e-007 -4.87106e-009 
43.6672 93.2929 327.871 -13.8887 -3.17651 -82.919 -31.4514 0.0172396 22.3906 31.5607 29.1336 -35.4277 -17.1199 -1.69523 -0.922337 0.0462048 0.000533403 0.662642 -10.3521 29.7877 7.13376 0.00484838 0.08434 -0.0714301 -1.12046 -1.70896 12.4085 1.59028e-015 -4.17448e-015 1.59028e-015 -79.1367 -74.0381 -64.8221 -54.1429 20.1122 -60.3794 -6.66905 15.3782 11.3462 -5.71945 11.8212 -3.22894 112.734 -0.387315 86.0987 6.79689 51.7414 100.776 24.6119 22.2877 13.7353 22.6967 -16.2472 -14.0506 -52.035 21.7681 86.6831 18.2163 -10.0841 0.81536 -2.02642e-009 1.56019e-007 -4.87106e-009 
43.4682 94.1258 328.434 -12.7899 -2.06104 -88.49 -31.8222 -1.31193 23.4714 29.6195 25.9295 -30.2816 -16.6304 -2.40478 -0.958979 0.0462048 0.000533403 0.662642 -13.5433 30.4539 10.6687 0.0213681 0.0623099 -0.0830405 -2.13659 -4.33523 14.3405 3.86217e-032 -1.39149e-015 1.59028e-015 -45.5713 -76.1747 -37.8175 -59.5897 9.71323 -56.079 -16.6489 18.7434 5.56984 -5.02994 8.94757 -2.49528 107.677 -2.49732 86.8264 -0.28143 49.4687 101.122 33.306 27.0528 -5.36972 23.3173 -17.7961 -14.0013 -51.6579 24.1318 86.2432 20.4209 -9.61438 1.21842 -2.02642e-009 1.56019e-007 -4.87105e-009 
43.3837 94.9988 328.966 -11.927 -1.16364 -93.3239 -32.6359 -2.36079 23.1851 28.7056 22.6356 -25.046 -16.4681 -3.11445 -1.00001 0.0462048 0.000533403 0.662642 -15.9107 31.2432 11.8433 0.026458 0.0385399 -0.0865407 -3.33989 -6.95788 17.3722 1.59028e-015 -2.73329e-016 -1.19271e-015 -16.357 -75.3169 -15.2853 -64.3239 3.00835 -51.4541 -20.7328 23.3104 0.652326 -4.50523 6.24388 -1.27298 106.948 -5.65292 85.2322 -6.17625 48.7917 103.078 15.4897 21.0168 14.5153 23.1609 -18.9506 -14.5961 -50.4337 26.463 84.4338 22.4347 -9.1347 1.58777 -2.02642e-009 1.56019e-007 -4.87106e-009 
43.4489 95.7653 329.565 -11.2933 -0.350044 -97.4646 -33.3289 -3.49171 22.6564 28.803 19.5934 -20.8969 -16.3139 -3.80412 -1.00776 0.0462048 0.000533403 0.662642 -17.2761 32.1563 10.8971 0.0250753 0.0346399 -0.0745309 -4.61914 -9.53101 21.3238 -3.18055e-015 -2.38542e-015 -0 1.41806 -73.2404 -3.23598 -67.333 -0.667009 -48.2419 -24.8158 28.6056 -2.68113 3.61147 6.64033 -6.84883 101.918 -1.07666 84.7995 -9.19098 51.3871 106.934 22.9022 22.3214 13.4762 22.4104 -19.577 -15.7443 -49.3152 27.3948 83.2193 25.3744 -8.40899 2.01699 -2.02642e-009 1.56019e-007 -4.87107e-009 
